<?xml version="1.0" encoding="UTF-8" standalone="no"?>
<!DOCTYPE svg PUBLIC "-//W3C//DTD SVG 1.1//EN" "http://www.w3.org/Graphics/SVG/1.1/DTD/svg11.dtd">
<svg width="100%" height="100%" viewBox="0 0 601 601" version="1.1" xmlns="http://www.w3.org/2000/svg" xmlns:xlink="http://www.w3.org/1999/xlink" xml:space="preserve" xmlns:serif="http://www.serif.com/" style="fill-rule:evenodd;clip-rule:evenodd;stroke-linejoin:round;stroke-miterlimit:2;">
    <g transform="matrix(1,0,0,1,-200,-200)">
        <path d="M284.71,513.065C221.752,450.107 221.752,347.668 284.71,284.71C347.667,221.753 450.107,221.753 513.065,284.71C576.022,347.668 576.023,450.108 513.065,513.065C450.107,576.023 347.667,576.022 284.71,513.065ZM539.522,258.253C461.852,180.582 335.923,180.582 258.252,258.253C180.582,335.923 180.582,461.852 258.252,539.522C335.923,617.193 461.852,617.193 539.522,539.522C617.193,461.852 617.193,335.923 539.522,258.253Z" style="fill:#c2c2ce;fill-rule:nonzero;"/>
        <path d="M794.274,752.876L622.26,580.862C618.438,577.041 612.243,577.041 608.422,580.862L580.862,608.422C577.041,612.243 577.041,618.438 580.862,622.26L752.876,794.274C760.511,801.909 772.89,801.909 780.525,794.274L794.274,780.525C801.909,772.89 801.909,760.511 794.274,752.876Z" style="fill:#c2c2ce;fill-rule:nonzero;"/>
        <path d="M560.575,531.682C556.303,536.911 551.73,541.977 546.854,546.854C541.977,551.73 536.911,556.303 531.682,560.575L571.787,600.679L600.679,571.787L560.575,531.682Z" style="fill:#c2c2ce;fill-rule:nonzero;"/>
    </g>
</svg>
